<svg width="546" height="511" viewBox="0 0 546 511" fill="none" xmlns="http://www.w3.org/2000/svg">
<g id="undraw_happy_music_g6wc 1" clip-path="url(#clip0)">
<g id="bird">
<path id="Vector" d="M345.251 435.257C405.707 435.257 454.716 386.247 454.716 325.791C454.716 265.335 405.707 216.326 345.251 216.326C284.795 216.326 235.785 265.335 235.785 325.791C235.785 386.247 284.795 435.257 345.251 435.257Z" fill="#3F3D56"/>
<path id="Vector_2" d="M276.335 334.578C279.054 331.324 282.454 328.706 286.296 326.909C290.137 325.113 294.326 324.181 298.567 324.181C302.808 324.181 306.997 325.113 310.838 326.909C314.68 328.706 318.08 331.324 320.798 334.578C325.45 330.137 328.666 324.405 330.03 318.12C331.394 311.835 330.845 305.286 328.453 299.316C326.061 293.346 321.936 288.229 316.609 284.625C311.282 281.021 304.998 279.095 298.567 279.095C292.136 279.095 285.852 281.021 280.525 284.625C275.198 288.229 271.073 293.346 268.681 299.316C266.289 305.286 265.74 311.835 267.104 318.12C268.468 324.405 271.683 330.137 276.335 334.578V334.578Z" fill="white"/>
<path id="Vector_3" d="M363.264 334.578C365.983 331.324 369.383 328.706 373.224 326.909C377.066 325.113 381.255 324.181 385.496 324.181C389.736 324.181 393.925 325.113 397.767 326.909C401.608 328.706 405.008 331.324 407.727 334.578C412.379 330.137 415.594 324.405 416.959 318.12C418.323 311.835 417.774 305.286 415.381 299.316C412.989 293.346 408.864 288.229 403.538 284.625C398.211 281.021 391.927 279.095 385.496 279.095C379.064 279.095 372.78 281.021 367.454 284.625C362.127 288.229 358.002 293.346 355.61 299.316C353.217 305.286 352.668 311.835 354.032 318.12C355.397 324.405 358.612 330.137 363.264 334.578Z" fill="white"/>
<path id="Vector_4" d="M266.371 366.036C273.484 366.036 279.249 360.27 279.249 353.158C279.249 346.045 273.484 340.279 266.371 340.279C259.259 340.279 253.493 346.045 253.493 353.158C253.493 360.27 259.259 366.036 266.371 366.036Z" fill="#FF6584"/>
<path id="Vector_5" d="M414.472 366.036C421.584 366.036 427.35 360.27 427.35 353.158C427.35 346.045 421.584 340.279 414.472 340.279C407.359 340.279 401.593 346.045 401.593 353.158C401.593 360.27 407.359 366.036 414.472 366.036Z" fill="#FF6584"/>
<path id="Vector_6" d="M340.421 327.401L330.763 369.255L346.86 353.158L340.421 327.401Z" fill="#FF6584"/>
<path id="Vector_7" d="M390.05 488.38L379.085 479.176L379.34 488.38H375.934L375.662 478.648L360.857 488.38H354.659L375.552 474.647L374.742 445.811L374.138 424.033L377.535 423.939L378.148 445.811L378.957 474.621L395.346 488.38H390.05Z" fill="#3F3D56"/>
<path id="Vector_8" d="M338.533 488.38L327.567 479.176L327.823 488.38H324.426L324.154 478.648L309.348 488.38H303.15L324.034 474.647L323.226 445.811L322.621 424.033L326.027 423.939L326.64 445.811L327.44 474.621L343.829 488.38H338.533Z" fill="#3F3D56"/>
<path id="Vector_9" d="M346.861 208.277C343.857 208.277 341.207 210.61 339.436 214.194C337.874 208.805 334.594 205.057 330.763 205.057C330.502 205.083 330.244 205.126 329.989 205.187C328.517 199.433 325.094 195.398 321.104 195.398C315.77 195.398 311.445 202.606 311.445 211.496C311.445 220.387 315.77 227.594 321.104 227.594C321.364 227.568 321.623 227.525 321.877 227.464C323.35 233.218 326.772 237.253 330.763 237.253C333.766 237.253 336.416 234.92 338.188 231.336C339.749 236.725 343.029 240.472 346.861 240.472C352.195 240.472 356.519 233.265 356.519 224.375C356.519 215.484 352.195 208.277 346.861 208.277Z" fill="#3F3D56"/>
<path id="Vector_10" d="M242.503 367.274C238.275 367.274 234.089 366.441 230.182 364.823C226.276 363.205 222.727 360.834 219.737 357.844C216.748 354.854 214.376 351.305 212.758 347.399C211.14 343.493 210.308 339.306 210.308 335.078V318.98C210.308 310.441 213.7 302.252 219.737 296.214C225.775 290.176 233.964 286.784 242.503 286.784V286.784V367.274Z" fill="#6C63FF"/>
<path id="Vector_11" d="M447.998 286.784C452.226 286.784 456.413 287.617 460.319 289.235C464.225 290.853 467.775 293.225 470.764 296.214C473.754 299.204 476.125 302.753 477.743 306.659C479.361 310.566 480.194 314.752 480.194 318.98V335.078C480.194 339.306 479.361 343.493 477.743 347.399C476.125 351.305 473.754 354.854 470.764 357.844C467.775 360.834 464.225 363.205 460.319 364.823C456.413 366.441 452.226 367.274 447.998 367.274V367.274V286.784H447.998Z" fill="#6C63FF"/>
<path id="Vector_12" d="M464.869 321.51H459.761C459.761 256.726 407.055 204.02 342.271 204.02C277.487 204.02 224.781 256.726 224.781 321.51H219.673C219.673 253.909 274.67 198.912 342.271 198.912C409.872 198.912 464.869 253.909 464.869 321.51Z" fill="#6C63FF"/>
</g>
<g id="left-eye">
<path id="Vector_13" d="M287.584 311.402C293.701 311.402 298.659 306.444 298.659 300.327C298.659 294.211 293.701 289.252 287.584 289.252C281.467 289.252 276.509 294.211 276.509 300.327C276.509 306.444 281.467 311.402 287.584 311.402Z" fill="#3F3D56"/>
</g>
<g id="right-eye">
<path id="Vector_14" d="M374.509 311.402C380.626 311.402 385.584 306.444 385.584 300.327C385.584 294.211 380.626 289.252 374.509 289.252C368.393 289.252 363.434 294.211 363.434 300.327C363.434 306.444 368.393 311.402 374.509 311.402Z" fill="#3F3D56"/>
</g>
</g>
<defs>
<clipPath id="clip0">
<rect width="546" height="511" fill="white"/>
</clipPath>
</defs>
</svg>
